<svg width="495" height="446" viewBox="0 0 495 446" fill="none" xmlns="http://www.w3.org/2000/svg">
<path opacity="0.05" fill-rule="evenodd" clip-rule="evenodd" d="M189.225 397.252C232.253 414.862 227.244 445.262 307.163 445.262C353.341 437.601 393.071 389.945 423.361 354.251C454.102 318.023 466.616 293.034 479.304 247.246C494.247 193.315 504.171 133.567 479.242 83.4675C453.278 31.2899 408.668 10.4079 351 1.99998C295.947 -6.02674 248.639 25.1758 195.644 42.1192C147.487 57.5156 89.5906 39.7072 50.7474 72.0733C9.37313 106.548 -0.0567599 166.139 0.247489 219.994C0.542604 272.233 14.6705 318.066 52.3415 354.251C85.3016 385.911 124.963 370.95 189.225 397.252Z" fill="#0057FF"/>
</svg>
