<svg width="121" height="39" viewBox="0 0 121 39" fill="none" xmlns="http://www.w3.org/2000/svg">
<rect x="0.375" y="0.375" width="120.25" height="37.97" rx="4.625" fill="white"/>
<path fill-rule="evenodd" clip-rule="evenodd" d="M9.26367 18.9729V8.80894C9.26367 8.22814 9.73633 7.74414 10.209 7.74414C10.6816 7.74414 10.8707 7.84094 11.1543 8.03454L29.3988 18.2953C29.777 18.4889 29.966 18.7793 29.966 19.0697C29.966 19.3601 29.777 19.6505 29.3988 19.8441L11.1543 30.1049C10.9652 30.2017 10.6816 30.3953 10.209 30.3953C9.73633 30.3953 9.26367 29.9113 9.26367 29.3305V18.9729Z" fill="#2C3952" fill-opacity="0.75"/>
<path fill-rule="evenodd" clip-rule="evenodd" d="M21.0807 19.0697L10.0205 7.74414C10.115 7.74414 10.115 7.74414 10.2096 7.74414C10.6822 7.74414 10.8713 7.84094 11.1549 8.03454L24.5783 15.5849L21.0807 19.0697Z" fill="white" fill-opacity="0.5"/>
<path fill-rule="evenodd" clip-rule="evenodd" d="M24.4832 22.458L21.0801 18.9732L24.5777 15.3916L29.3988 18.102C29.777 18.2956 29.966 18.586 29.966 18.8764C29.966 19.1668 29.777 19.4572 29.3988 19.6508L24.4832 22.458Z" fill="url(#paint0_linear)"/>
<path fill-rule="evenodd" clip-rule="evenodd" d="M24.4832 22.458L21.0801 18.9732L24.5777 15.3916L29.3988 18.102C29.777 18.2956 29.966 18.586 29.966 18.8764C29.966 19.1668 29.777 19.4572 29.3988 19.6508L24.4832 22.458Z" fill="#2C3953"/>
<path opacity="0.2" fill-rule="evenodd" clip-rule="evenodd" d="M10.1152 30.2015L21.0809 18.9727L24.484 22.4575L11.1551 29.9111C10.8715 30.1047 10.6824 30.2015 10.1152 30.2015C10.2098 30.2015 10.2098 30.2015 10.1152 30.2015Z" fill="#2C3953"/>
<path fill-rule="evenodd" clip-rule="evenodd" d="M67.2117 32.815C66.739 32.4278 66.3609 31.7502 66.1718 31.363L67.6843 30.6854C67.7788 30.879 67.9679 31.1694 68.157 31.4598C68.5351 31.847 69.1023 32.2342 69.6695 32.2342C70.2367 32.2342 70.8984 31.9438 71.2765 31.4598C71.5601 30.9758 71.7491 30.4918 71.7491 29.8142V29.2334C70.6148 30.6854 68.2515 30.4918 66.928 28.943C65.5101 27.3942 65.5101 24.7806 66.928 23.2318C68.346 21.7798 70.4257 21.5862 71.6546 22.9414V22.2638H73.2617V29.5238C73.2617 31.363 72.5999 32.4278 71.7491 33.1054C71.182 33.5894 70.3312 33.783 69.5749 33.783C68.7242 33.6862 67.8734 33.3958 67.2117 32.815ZM106.82 33.2022L108.427 29.3302L105.591 22.651H107.198L109.184 27.3942L111.169 22.651H112.776L108.427 33.2022H106.82ZM99.1632 29.5238C98.6905 29.0398 98.5015 28.3622 98.5015 27.6846C98.5015 27.1038 98.6905 26.523 99.0687 26.1358C99.7304 25.4582 100.676 25.1678 101.716 25.1678C102.377 25.1678 102.944 25.2646 103.417 25.555C103.417 24.3934 102.472 23.9094 101.716 23.9094C101.054 23.9094 100.392 24.2966 100.109 24.9742L98.6905 24.3934C98.9741 23.7158 99.7304 22.4574 101.621 22.4574C102.566 22.4574 103.512 22.7478 104.079 23.4254C104.646 24.103 104.835 24.8774 104.835 25.9422V30.0078H103.228V29.3302C103.039 29.6206 102.661 29.8142 102.377 30.0078C101.999 30.2014 101.526 30.2982 101.054 30.2982C100.487 30.2014 99.6359 30.0078 99.1632 29.5238ZM48.7781 26.039C48.7781 24.103 50.196 21.9734 52.7484 21.9734C55.2062 21.9734 56.7187 24.103 56.7187 26.039C56.7187 27.975 55.3007 30.1046 52.7484 30.1046C50.196 30.1046 48.7781 27.975 48.7781 26.039ZM57.2859 26.039C57.2859 24.103 58.7038 21.9734 61.2562 21.9734C63.714 21.9734 65.2265 24.103 65.2265 26.039C65.2265 27.975 63.8085 30.1046 61.2562 30.1046C58.7984 30.1046 57.2859 27.975 57.2859 26.039ZM38.096 28.1686C35.7327 25.7486 35.8273 21.7798 38.1905 19.263C39.4195 18.0046 40.932 17.4238 42.539 17.4238C44.0515 17.4238 45.564 18.0046 46.6984 19.1662L45.564 20.4246C43.8624 18.6822 41.121 18.779 39.514 20.5214C37.8124 22.3606 37.8124 25.1678 39.514 27.007C41.2156 28.8462 44.0515 28.943 45.753 27.1038C46.3202 26.523 46.5093 25.7486 46.6038 24.9742H42.6335V23.2318H48.2109C48.3054 23.619 48.3054 24.103 48.3054 24.587C48.3054 26.039 47.7382 27.491 46.7929 28.459C45.7531 29.5238 44.2406 30.1046 42.7281 30.1046C41.0265 30.0078 39.3249 29.427 38.096 28.1686ZM78.0827 28.8462C76.6648 27.2974 76.6648 24.6838 78.0827 23.0382C79.5007 21.4894 81.864 21.4894 83.1874 23.0382C83.6601 23.5222 83.9437 24.1998 84.2273 24.8774L79.0281 27.1038C79.3117 27.7814 79.9734 28.3622 80.9187 28.3622C81.7695 28.3622 82.3367 28.0718 82.9038 27.2006L84.3218 28.1686C84.1328 28.3622 83.9437 28.5558 83.8492 28.7494C82.2421 30.395 79.5007 30.395 78.0827 28.8462ZM87.914 30.0078V19.263H91.3171C93.3023 19.263 94.9093 20.715 94.9093 22.4574C94.9093 24.1998 93.4913 25.6518 91.6952 25.6518H89.6155V29.911H87.914V30.0078ZM95.8546 30.0078V19.263H97.4617V30.0078H95.8546ZM74.4905 29.8142V17.811H76.1921V29.8142H74.4905ZM103.323 26.8134C102.944 26.523 102.377 26.4262 101.81 26.4262C100.676 26.4262 100.014 27.007 100.014 27.6846C100.014 28.3622 100.676 28.7494 101.337 28.7494C102.283 28.7494 103.323 27.975 103.323 26.8134ZM54.9226 26.039C54.9226 24.8774 54.1663 23.619 52.7484 23.619C51.3304 23.619 50.5741 24.8774 50.5741 26.039C50.5741 27.2006 51.3304 28.459 52.7484 28.459C54.0718 28.459 54.9226 27.2006 54.9226 26.039ZM63.4304 26.039C63.4304 24.8774 62.6742 23.619 61.2562 23.619C59.8382 23.619 59.082 24.8774 59.082 26.039C59.082 27.2006 59.8382 28.459 61.2562 28.459C62.6742 28.459 63.4304 27.2006 63.4304 26.039ZM71.8437 26.7166C71.8437 26.6198 71.8437 26.523 71.9382 26.4262C71.9382 26.3294 71.9382 26.1358 71.9382 26.039C71.9382 25.9422 71.9382 25.7486 71.9382 25.6518V25.555C71.9382 25.4582 71.8437 25.2646 71.8437 25.1678C71.5601 24.1998 70.7093 23.5222 69.8585 23.5222C68.7241 23.5222 67.7788 24.6838 67.7788 25.9422C67.7788 27.2974 68.7241 28.3622 69.9531 28.3622C70.7093 28.459 71.4656 27.7814 71.8437 26.7166ZM78.7444 25.8454L82.2421 24.2966C81.864 23.619 81.2968 23.4254 80.8242 23.4254C79.4062 23.5222 78.5554 25.071 78.7444 25.8454ZM93.2077 22.5542C93.2077 21.5862 92.4515 20.9086 91.4117 20.9086H89.521V24.2966H91.5062C92.4515 24.2966 93.2077 23.5222 93.2077 22.5542Z" fill="#2C3953"/>
<path fill-rule="evenodd" clip-rule="evenodd" d="M108.049 31.2659H107.955V31.1699H108.049H107.955V31.2659H108.049Z" fill="#2C3953"/>
<path fill-rule="evenodd" clip-rule="evenodd" d="M108.237 31.2659C108.237 31.1699 108.237 31.1699 108.237 31.2659C108.144 31.1699 108.144 31.1699 108.237 31.2659C108.144 31.2659 108.144 31.2659 108.237 31.2659ZM108.237 31.1699C108.237 31.2659 108.237 31.2659 108.237 31.1699C108.237 31.2659 108.144 31.2659 108.237 31.1699C108.144 31.1699 108.237 31.1699 108.237 31.1699Z" fill="#2C3953"/>
<path fill-rule="evenodd" clip-rule="evenodd" d="M108.332 31.1699H108.238H108.332V31.2659V31.1699Z" fill="#2C3953"/>
<path d="M36.7725 9.77693C36.7725 8.03453 38.0014 6.96973 39.5139 6.96973C40.5537 6.96973 41.2154 7.45373 41.6881 8.13133L40.9318 8.61533C40.6483 8.22813 40.1756 7.93773 39.5139 7.93773C38.474 7.93773 37.7178 8.71213 37.7178 9.87373C37.7178 11.0353 38.474 11.8097 39.5139 11.8097C40.0811 11.8097 40.5537 11.5193 40.7428 11.3257V10.4545H39.2303V9.58333H41.7826V11.6161C41.31 12.1969 40.5537 12.5841 39.6084 12.5841C38.0014 12.5841 36.7725 11.4225 36.7725 9.77693Z" fill="#2C3953"/>
<path d="M42.917 12.4872V7.06641H46.5092V7.93761H43.7678V9.29281H46.4147V10.164H43.7678V11.7128H46.5092V12.584L42.917 12.4872Z" fill="#2C3953"/>
<path d="M49.1559 12.4872V7.93761H47.5488V7.06641H51.7082V7.93761H50.1012V12.4872H49.1559Z" fill="#2C3953"/>
<path d="M54.9229 12.4872V7.06641H55.8682V12.4872H54.9229Z" fill="#2C3953"/>
<path d="M58.4205 12.4872V7.93761H56.8135V7.06641H60.9729V7.93761H59.3658V12.4872H58.4205Z" fill="#2C3953"/>
<path d="M63.9971 9.77693C63.9971 8.13133 65.1315 6.96973 66.7385 6.96973C68.3455 6.96973 69.4799 8.13133 69.4799 9.77693C69.4799 11.4225 68.3455 12.5841 66.7385 12.5841C65.1315 12.5841 63.9971 11.3257 63.9971 9.77693ZM68.44 9.77693C68.44 8.61533 67.7783 7.84093 66.6439 7.84093C65.6041 7.84093 64.8479 8.71213 64.8479 9.77693C64.8479 10.9385 65.5096 11.7129 66.6439 11.7129C67.7783 11.7129 68.44 10.8417 68.44 9.77693Z" fill="#2C3953"/>
<path d="M74.2072 12.4872L71.4658 8.61521V12.4872H70.5205V7.06641H71.4658L74.2072 10.8416V7.06641H75.1525V12.4872H74.2072Z" fill="#2C3953"/>
<rect x="0.375" y="0.375" width="120.25" height="37.97" rx="4.625" stroke="#2C3953" stroke-width="0.75"/>
<defs>
<linearGradient id="paint0_linear" x1="25.5178" y1="22.8647" x2="25.5178" y2="15.1706" gradientUnits="userSpaceOnUse">
<stop stop-color="#FCC072"/>
<stop offset="1" stop-color="#F58A5B"/>
</linearGradient>
</defs>
</svg>
