<svg width="121" height="39" viewBox="0 0 121 39" fill="none" xmlns="http://www.w3.org/2000/svg">
<g clip-path="url(#clip0)">
<path d="M111.364 0.00012584H9.64112C9.27033 0.00012584 8.90399 0.00012584 8.53417 0.00206184C8.22461 0.00399784 7.9175 0.00962192 7.60496 0.0143554C6.92598 0.0220044 6.2486 0.0791885 5.57869 0.185411C4.90973 0.293945 4.26172 0.498564 3.65659 0.792347C3.0522 1.08861 2.49995 1.47358 2.01987 1.93329C1.53728 2.3917 1.13499 2.92157 0.828497 3.5025C0.521154 4.08229 0.308041 4.70358 0.19652 5.34492C0.0839377 5.98545 0.0233562 6.63337 0.0153191 7.28286C0.00593553 7.57964 0.00494459 7.87742 0 8.17425V30.5489C0.00494459 30.8494 0.00593553 31.1406 0.0153191 31.4412C0.0233587 32.0907 0.0839401 32.7386 0.19652 33.3791C0.307734 34.0208 0.520859 34.6425 0.828497 35.2225C1.13486 35.8015 1.53719 36.3292 2.01987 36.7851C2.49813 37.2468 3.05073 37.6321 3.65659 37.9261C4.26172 38.2206 4.90966 38.4265 5.57869 38.5367C6.24871 38.6421 6.92603 38.6993 7.60496 38.7078C7.9175 38.7144 8.22461 38.7182 8.53417 38.7182C8.90398 38.7201 9.27035 38.7201 9.64112 38.7201H111.364C111.728 38.7201 112.097 38.7201 112.46 38.7182C112.769 38.7182 113.085 38.7144 113.393 38.7078C114.07 38.6997 114.746 38.6425 115.415 38.5367C116.086 38.4257 116.736 38.2199 117.344 37.9261C117.95 37.6319 118.502 37.2467 118.98 36.7851C119.461 36.3274 119.864 35.8001 120.174 35.2225C120.48 34.642 120.691 34.0204 120.8 33.3791C120.913 32.7385 120.976 32.0908 120.988 31.4412C120.992 31.1406 120.992 30.8494 120.992 30.5489C121 30.1972 121 29.8474 121 29.4901V9.2311C121 8.87661 121 8.52495 120.992 8.17425C120.992 7.87742 120.992 7.57964 120.988 7.28282C120.976 6.63327 120.913 5.9855 120.8 5.34488C120.691 4.70391 120.48 4.08267 120.174 3.50247C119.55 2.33804 118.561 1.3902 117.344 0.79226C116.736 0.499195 116.086 0.294631 115.415 0.185324C114.746 0.0786333 114.07 0.0214294 113.393 0.0142199C113.085 0.00949608 112.769 0.0038236 112.46 0.001936C112.097 0 111.728 0 111.364 0V0.00012584Z" fill="#2C3953"/>
<path d="M8.53916 37.8727C8.23108 37.8727 7.93044 37.8689 7.62478 37.8623C6.99157 37.8544 6.35984 37.8017 5.73477 37.7044C5.15193 37.6083 4.58731 37.4296 4.05954 37.1741C3.5366 36.9207 3.05965 36.5884 2.64694 36.19C2.22826 35.7963 1.87969 35.3397 1.61504 34.8382C1.34747 34.3335 1.1623 33.7925 1.06597 33.234C0.961951 32.634 0.905669 32.0272 0.897616 31.419C0.891205 31.2149 0.882812 30.5351 0.882812 30.5351V8.1738C0.882812 8.1738 0.891751 7.50452 0.897667 7.30789C0.905378 6.70064 0.961332 6.09484 1.06504 5.49572C1.16155 4.93575 1.34686 4.39319 1.61457 3.88681C1.87825 3.38569 2.22488 2.92871 2.64104 2.53359C3.05674 2.13472 3.53522 1.80074 4.05904 1.54384C4.5856 1.28915 5.14915 1.11165 5.73082 1.01731C6.35794 0.919121 6.99186 0.866036 7.62727 0.858499L8.53966 0.84668H112.456L113.379 0.858973C114.008 0.866136 114.637 0.918747 115.258 1.01636C115.846 1.11189 116.415 1.29062 116.948 1.54668C117.997 2.06441 118.851 2.88351 119.389 3.88917C119.653 4.39206 119.835 4.93019 119.931 5.48533C120.036 6.08936 120.094 6.69992 120.106 7.31215C120.109 7.58628 120.109 7.88075 120.109 8.1738C120.117 8.5368 120.117 8.88231 120.117 9.23065V29.4896C120.117 29.8413 120.117 30.1844 120.109 30.5304C120.109 30.8452 120.109 31.1336 120.105 31.4304C120.094 32.0317 120.036 32.6313 119.933 33.2245C119.838 33.787 119.654 34.3322 119.387 34.8411C119.12 35.3371 118.773 35.7898 118.36 36.1825C117.947 36.583 117.469 36.9172 116.945 37.1722C116.413 37.4297 115.845 37.6091 115.258 37.7044C114.633 37.8022 114.001 37.8549 113.368 37.8623C113.072 37.8689 112.762 37.8727 112.46 37.8727L111.364 37.8746L8.53916 37.8727Z" fill="white"/>
<path d="M24.2762 19.2533C24.2876 18.4132 24.5207 17.5894 24.9539 16.8586C25.3872 16.1278 26.0065 15.5139 26.7542 15.0738C26.2792 14.4244 25.6525 13.8899 24.924 13.5129C24.1955 13.1359 23.3852 12.9266 22.5575 12.9018C20.7917 12.7244 19.0799 13.9133 18.1801 13.9133C17.2629 13.9133 15.8776 12.9195 14.3858 12.9488C13.4208 12.9787 12.4804 13.2473 11.6562 13.7285C10.8319 14.2097 10.1519 14.8872 9.68247 15.6948C7.6489 19.0653 9.16576 24.019 11.1138 26.7435C12.0884 28.0776 13.2275 29.5679 14.718 29.515C16.1765 29.4571 16.7212 28.6247 18.4817 28.6247C20.2259 28.6247 20.737 29.515 22.2577 29.4814C23.8227 29.4571 24.8088 28.1414 25.7492 26.7946C26.4495 25.844 26.9884 24.7934 27.3458 23.6817C26.4366 23.3135 25.6607 22.6973 25.1148 21.9098C24.5689 21.1223 24.2773 20.1984 24.2762 19.2533Z" fill="#2C3953"/>
<path d="M21.404 11.1094C22.2573 10.1288 22.6777 8.86831 22.5759 7.5957C21.2722 7.72678 20.068 8.32327 19.2031 9.2663C18.7803 9.72699 18.4564 10.263 18.2501 10.8435C18.0437 11.4241 17.9589 12.038 18.0005 12.6499C18.6526 12.6564 19.2977 12.5211 19.8872 12.2542C20.4768 11.9874 20.9954 11.596 21.404 11.1094Z" fill="#2C3953"/>
<path d="M42.7744 26.2716H37.9882L36.8388 29.5206H34.8115L39.345 17.5H41.4512L45.9847 29.5206H43.9229L42.7744 26.2716ZM38.4839 24.7723H42.2778L40.4075 19.4994H40.3551L38.4839 24.7723Z" fill="#2C3953"/>
<path d="M55.7749 25.1389C55.7749 27.8623 54.2523 29.6121 51.9544 29.6121C51.3723 29.6412 50.7935 29.5129 50.284 29.2417C49.7746 28.9705 49.3553 28.5675 49.074 28.0788H49.0305V32.4197H47.1514V20.7564H48.9703V22.2141H49.0048C49.299 21.7277 49.7255 21.3267 50.2388 21.0539C50.7521 20.7811 51.333 20.6466 51.9198 20.6647C54.2434 20.6647 55.7749 22.423 55.7749 25.1389ZM53.8434 25.1389C53.8434 23.3645 52.8856 22.198 51.4241 22.198C49.9884 22.198 49.0226 23.3891 49.0226 25.1389C49.0226 26.9047 49.9884 28.0873 51.4241 28.0873C52.8856 28.0873 53.8434 26.9293 53.8434 25.1389H53.8434Z" fill="#2C3953"/>
<path d="M65.8516 25.1389C65.8516 27.8623 64.3284 29.6121 62.0306 29.6121C61.4485 29.6412 60.8696 29.5129 60.3602 29.2417C59.8508 28.9705 59.4314 28.5675 59.1502 28.0788H59.1067V32.4197H57.2275V20.7564H59.0464V22.2141H59.081C59.3752 21.7277 59.8017 21.3267 60.3149 21.0539C60.8282 20.7811 61.4092 20.6466 61.996 20.6647C64.3195 20.6647 65.8516 22.423 65.8516 25.1389ZM63.9196 25.1389C63.9196 23.3645 62.9618 22.198 61.5003 22.198C60.0646 22.198 59.0988 23.3891 59.0988 25.1389C59.0988 26.9047 60.0646 28.0873 61.5003 28.0873C62.9618 28.0873 63.9196 26.9293 63.9196 25.1389Z" fill="#2C3953"/>
<path d="M72.5105 26.1706C72.6498 27.3627 73.8594 28.1454 75.5124 28.1454C77.0963 28.1454 78.2359 27.3626 78.2359 26.2878C78.2359 25.3548 77.5486 24.7961 75.9213 24.4133L74.2939 24.038C71.9882 23.5048 70.9178 22.4725 70.9178 20.7974C70.9178 18.7234 72.8058 17.2988 75.4858 17.2988C78.1401 17.2988 79.959 18.7234 80.0202 20.7974H78.1233C78.0097 19.5978 76.9739 18.8737 75.4601 18.8737C73.9463 18.8737 72.9105 19.6063 72.9105 20.6727C72.9105 21.5225 73.5721 22.0226 75.1905 22.4054L76.5739 22.7306C79.1502 23.3138 80.2197 24.3045 80.2197 26.0628C80.2197 28.3117 78.3494 29.7202 75.3732 29.7202C72.5885 29.7202 70.7084 28.3448 70.5869 26.1706L72.5105 26.1706Z" fill="#2C3953"/>
<path d="M84.2768 18.6816V20.7557H86.0177V22.1802H84.2768V27.0117C84.2768 27.7623 84.6253 28.1121 85.3906 28.1121C85.5973 28.1086 85.8036 28.0947 86.0088 28.0705V29.4865C85.6647 29.5481 85.315 29.576 84.965 29.5697C83.1115 29.5697 82.3887 28.9033 82.3887 27.2036V22.1802H81.0576V20.7557H82.3887V18.6816H84.2768Z" fill="#2C3953"/>
<path d="M87.0254 25.1387C87.0254 22.3812 88.7218 20.6484 91.3673 20.6484C94.0216 20.6484 95.7102 22.3812 95.7102 25.1387C95.7102 27.9037 94.0305 29.6289 91.3673 29.6289C88.7051 29.6289 87.0254 27.9037 87.0254 25.1387ZM93.7954 25.1387C93.7954 23.2471 92.8899 22.1307 91.3673 22.1307C89.8446 22.1307 88.9391 23.2556 88.9391 25.1387C88.9391 27.0378 89.8446 28.1457 91.3673 28.1457C92.8899 28.1457 93.7954 27.0378 93.7954 25.1387H93.7954Z" fill="#2C3953"/>
<path d="M97.2598 20.7563H99.052V22.248H99.0955C99.2168 21.7821 99.5019 21.3704 99.9029 21.082C100.304 20.7937 100.796 20.6463 101.298 20.6646C101.514 20.6639 101.73 20.6864 101.941 20.7317V22.4144C101.668 22.3344 101.383 22.2977 101.097 22.3057C100.824 22.2951 100.552 22.3412 100.299 22.4408C100.047 22.5403 99.8195 22.6911 99.6335 22.8827C99.4475 23.0742 99.3069 23.302 99.2216 23.5505C99.1362 23.799 99.108 24.0622 99.1389 24.322V29.5203H97.2598L97.2598 20.7563Z" fill="#2C3953"/>
<path d="M110.605 26.9461C110.352 28.5371 108.734 29.6289 106.663 29.6289C104 29.6289 102.347 27.9207 102.347 25.1803C102.347 22.4313 104.009 20.6484 106.584 20.6484C109.117 20.6484 110.71 22.3141 110.71 24.9713V25.5877H104.244V25.6964C104.214 26.0189 104.256 26.3439 104.367 26.6496C104.479 26.9553 104.657 27.2349 104.89 27.4697C105.123 27.7044 105.405 27.8891 105.718 28.0114C106.032 28.1336 106.368 28.1907 106.706 28.1788C107.15 28.2186 107.596 28.1202 107.977 27.8981C108.358 27.676 108.654 27.3421 108.821 26.9461L110.605 26.9461ZM104.252 24.3304H108.829C108.846 24.0404 108.8 23.7502 108.694 23.478C108.589 23.2058 108.425 22.9575 108.214 22.7486C108.003 22.5397 107.75 22.3748 107.469 22.2643C107.189 22.1537 106.887 22.0999 106.584 22.1061C106.278 22.1044 105.975 22.1606 105.691 22.2717C105.408 22.3828 105.151 22.5464 104.934 22.7532C104.717 22.96 104.545 23.2059 104.429 23.4766C104.312 23.7473 104.252 24.0375 104.252 24.3304V24.3304Z" fill="#2C3953"/>
<path d="M36 10.8072C36 9.0648 37.2289 8 38.7414 8C39.7813 8 40.443 8.484 40.9156 9.1616L40.1594 9.6456C39.8758 9.2584 39.4031 8.968 38.7414 8.968C37.7016 8.968 36.9453 9.7424 36.9453 10.904C36.9453 12.0656 37.7016 12.84 38.7414 12.84C39.3086 12.84 39.7813 12.5496 39.9703 12.356V11.4848H38.4578V10.6136H41.0102V12.6464C40.5375 13.2272 39.7812 13.6144 38.8359 13.6144C37.2289 13.6144 36 12.4528 36 10.8072Z" fill="#2C3953"/>
<path d="M42.1445 13.5175V8.09668H45.7367V8.96788H42.9953V10.3231H45.6422V11.1943H42.9953V12.7431H45.7367V13.6143L42.1445 13.5175Z" fill="#2C3953"/>
<path d="M48.3834 13.5175V8.96788H46.7764V8.09668H50.9357V8.96788H49.3287V13.5175H48.3834Z" fill="#2C3953"/>
<path d="M54.1504 13.5175V8.09668H55.0957V13.5175H54.1504Z" fill="#2C3953"/>
<path d="M57.648 13.5175V8.96788H56.041V8.09668H60.2004V8.96788H58.5934V13.5175H57.648Z" fill="#2C3953"/>
<path d="M63.2246 10.8072C63.2246 9.1616 64.359 8 65.966 8C67.5731 8 68.7074 9.1616 68.7074 10.8072C68.7074 12.4528 67.5731 13.6144 65.966 13.6144C64.359 13.6144 63.2246 12.356 63.2246 10.8072ZM67.6676 10.8072C67.6676 9.6456 67.0059 8.8712 65.8715 8.8712C64.8316 8.8712 64.0754 9.7424 64.0754 10.8072C64.0754 11.9688 64.7371 12.7432 65.8715 12.7432C67.0059 12.7432 67.6676 11.872 67.6676 10.8072Z" fill="#2C3953"/>
<path d="M73.4348 13.5175L70.6934 9.64548V13.5175H69.748V8.09668H70.6934L73.4348 11.8719V8.09668H74.3801V13.5175H73.4348Z" fill="#2C3953"/>
</g>
<defs>
<clipPath id="clip0">
<rect width="121" height="38.72" fill="white"/>
</clipPath>
</defs>
</svg>
