<svg width="120" height="40" viewBox="0 0 120 40" fill="none" xmlns="http://www.w3.org/2000/svg">
<g clip-path="url(#clip0)">
<path d="M110.57 0.50013H110.135H9.53468H110.57ZM110.57 0.50013C110.786 0.500323 111.002 0.500802 111.216 0.501992L111.219 0.002M110.57 0.50013H110.635V0.000196401C110.83 0.000425702 111.025 0.000922715 111.219 0.002M111.219 0.002C111.467 0.00359168 111.721 0.00778841 111.972 0.0119309C112.028 0.0128635 112.085 0.0137933 112.141 0.01469C112.811 0.0221378 113.48 0.0812328 114.141 0.19145M111.219 0.002L111.216 0.50199C111.462 0.503564 111.712 0.507708 111.963 0.511847C112.019 0.512784 112.076 0.51372 112.133 0.514632L112.135 0.514659C112.779 0.521819 113.422 0.578607 114.058 0.684519M114.141 0.19145L114.057 0.684367C114.057 0.684418 114.057 0.684469 114.058 0.684519M114.141 0.19145C114.804 0.30437 115.448 0.515697 116.049 0.81845L114.141 0.19145ZM114.058 0.684519C114.671 0.78903 115.266 0.984402 115.822 1.2642M114.058 0.684519L115.822 1.2642M115.822 1.2642C116.93 1.83384 117.832 2.73613 118.402 3.84445C118.68 4.39814 118.873 4.99094 118.973 5.60255L118.974 5.60465C119.081 6.24118 119.141 6.88481 119.152 7.5302C119.156 7.83305 119.156 8.1374 119.156 8.44447L119.156 8.45523C119.164 8.81125 119.164 9.16913 119.164 9.53626V30.4649C119.164 30.835 119.164 31.191 119.156 31.548L119.156 31.548V31.5587C119.156 31.8695 119.156 32.167 119.152 32.4738C119.141 33.1192 119.081 33.7629 118.974 34.3994L118.973 34.4018C118.873 35.0135 118.681 35.6064 118.402 36.1601C118.119 36.7095 117.752 37.211 117.314 37.6463L117.311 37.6492C116.876 38.0878 116.374 38.4538 115.824 38.7335C115.267 39.0144 114.672 39.2112 114.058 39.3176C113.422 39.4226 112.779 39.4794 112.134 39.4874L112.13 39.4876C111.828 39.4943 111.519 39.4981 111.219 39.4981L111.216 39.4981C110.858 39.5001 110.494 39.5001 110.135 39.5001H9.53468C9.16778 39.5001 8.80681 39.5001 8.44268 39.4981H8.43995C8.13807 39.4981 7.83808 39.4943 7.532 39.4875L7.52759 39.4875C6.88185 39.479 6.23765 39.4222 5.60039 39.3176C4.98864 39.2122 4.39619 39.0155 3.84285 38.7341L3.84229 38.7339C3.29087 38.4543 2.78791 38.0881 2.35262 37.6491L2.35264 37.6491L2.34872 37.6452C1.90982 37.2122 1.54397 36.7109 1.2654 36.1609L1.26517 36.1605C0.98402 35.6068 0.789245 35.0133 0.687609 34.4007L0.687419 34.3996C0.580367 33.7634 0.52276 33.1198 0.515115 32.4747H0.515196L0.514927 32.4657C0.508722 32.258 0.506349 32.0579 0.503897 31.8511C0.502749 31.7543 0.501584 31.656 0.5 31.5548V8.44844C0.501607 8.34704 0.502782 8.24764 0.503943 8.1494C0.506379 7.94341 0.508754 7.74249 0.514921 7.53874L0.515006 7.53874L0.515115 7.52953C0.522757 6.88439 0.580364 6.24082 0.68742 5.60457L0.687563 5.60371C0.7895 4.99135 0.984296 4.39814 1.26522 3.84456L1.26566 3.8437C1.54455 3.29151 1.91061 2.78786 2.34974 2.35213L2.35117 2.35071C2.78884 1.91292 3.29228 1.54627 3.84323 1.26403C4.39627 0.983685 4.98842 0.788365 5.59972 0.684667C6.23686 0.579183 6.88111 0.522395 7.52688 0.514795L7.52688 0.514799L7.52891 0.514767C7.59386 0.51374 7.65832 0.512677 7.72241 0.511619L115.822 1.2642ZM0.19435 34.4825C0.0830134 33.8209 0.0231008 33.1516 0.01515 32.4806C0.00880994 32.2684 0.00634396 32.0608 0.00385846 31.8515C0.00270592 31.7545 0.00154917 31.6571 0 31.5587L0.19435 34.4825ZM0.19435 34.4825C0.304336 35.1455 0.515108 35.7877 0.81935 36.3868L0.19435 34.4825Z" fill="white" stroke="#2C3953"/>
<g clip-path="url(#clip1)">
<path d="M115.307 38.5717H4.5418C2.51109 38.5717 0.849609 36.8746 0.849609 34.8003V4.62885C0.849609 2.55456 2.51109 0.857422 4.5418 0.857422H115.307C117.338 0.857422 119 2.55456 119 4.62885V34.8003C119 36.8746 117.338 38.5717 115.307 38.5717Z" fill="white"/>
<path d="M17.6492 28.483L9.3418 27.2573V20.0916H17.6492V28.483ZM17.6492 19.4316H9.3418V12.643L17.6492 11.4173V19.4316ZM29.0027 30.0859L18.2954 28.483V20.0916H29.0027V30.0859ZM29.0027 19.4316H18.2954V11.4173L29.0027 9.81445V19.4316Z" fill="#2C3952"/>
<path d="M40.0791 30.7455L37.5869 20.4683H38.9715L40.1714 25.654C40.4483 26.974 40.7253 28.1997 40.9099 29.2369C41.0945 28.1997 41.3714 26.974 41.7406 25.654L43.0329 20.4683H44.4175L45.6174 25.654C45.8943 26.8797 46.1712 28.1055 46.3559 29.1426C46.5405 28.0112 46.8174 26.8797 47.1866 25.5597L48.4789 20.374H49.7711L46.9097 30.6512H45.5251L44.2328 25.2769C43.9559 23.9569 43.679 22.9197 43.5867 21.8826C43.4021 22.9197 43.2175 23.8626 42.8483 25.2769L41.4637 30.6512H40.0791V30.7455Z" fill="#2C3952"/>
<path d="M52.0785 21.2226C52.0785 21.694 51.8015 22.0712 51.2477 22.0712C50.7862 22.0712 50.417 21.694 50.417 21.2226C50.417 20.7512 50.7862 20.374 51.2477 20.374C51.8015 20.4683 52.0785 20.7512 52.0785 21.2226ZM50.6016 30.7455V23.3912H51.8939V30.7455H50.6016Z" fill="#2C3952"/>
<path d="M53.5552 25.3717C53.5552 24.6174 53.5552 23.9574 53.4629 23.3917H54.6629L54.7552 24.6174C55.1244 23.9574 55.9551 23.2031 57.1551 23.2031C58.1704 23.2031 59.6473 23.7688 59.6473 26.3146V30.746H58.3551V26.5031C58.3551 25.2774 57.8935 24.3346 56.6936 24.3346C55.8628 24.3346 55.1244 24.9946 54.9398 25.7488C54.8475 25.9374 54.8475 26.126 54.8475 26.4088V30.8403H53.5552V25.3717Z" fill="#2C3952"/>
<path d="M67.8627 19.9029V28.86C67.8627 29.52 67.8627 30.2743 67.955 30.7457H66.7551L66.6628 29.4257C66.2935 30.2743 65.3705 30.84 64.2628 30.84C62.509 30.84 61.2168 29.3315 61.2168 27.0686C61.2168 24.6172 62.6937 23.1086 64.4475 23.1086C65.5551 23.1086 66.2935 23.6743 66.5704 24.24V19.8086H67.8627V19.9029ZM66.5704 26.3143C66.5704 26.1257 66.5704 25.9372 66.4781 25.7486C66.2935 24.9 65.5551 24.24 64.632 24.24C63.2475 24.24 62.5091 25.4657 62.5091 27.0686C62.5091 28.5772 63.2475 29.8029 64.632 29.8029C65.4628 29.8029 66.2935 29.2372 66.5704 28.2C66.5704 28.0115 66.6628 27.8229 66.6628 27.6343V26.3143H66.5704Z" fill="#2C3952"/>
<path d="M76.0776 26.9746C76.0776 29.7088 74.2315 30.9346 72.4778 30.9346C70.5394 30.9346 69.0625 29.426 69.0625 27.1631C69.0625 24.7117 70.6317 23.2031 72.6624 23.2031C74.6931 23.2031 76.0776 24.7117 76.0776 26.9746ZM70.4471 27.0688C70.4471 28.6717 71.3701 29.8974 72.6624 29.8974C73.8623 29.8974 74.8777 28.6717 74.8777 27.0688C74.8777 25.8431 74.2316 24.2403 72.7547 24.2403C71.0932 24.146 70.4471 25.6546 70.4471 27.0688Z" fill="#2C3952"/>
<path d="M77.7395 23.2969L78.6626 27.0683C78.8472 27.9169 79.0318 28.6712 79.2164 29.4254C79.401 28.6712 79.5856 27.9169 79.8625 27.0683L81.0625 23.2969H82.1701L83.2778 26.974C83.5547 27.8226 83.7393 28.6712 83.9239 29.4254C84.0162 28.6712 84.2008 27.9169 84.4777 27.0683L85.4931 23.3912H86.7854L84.4777 30.7454H83.2778L82.1701 27.2569C81.8932 26.4083 81.7086 25.7483 81.524 24.8054C81.3394 25.654 81.1548 26.4083 80.8779 27.2569L79.6779 30.7454H78.5703L76.4473 23.3912H77.7395V23.2969Z" fill="#2C3952"/>
<path d="M87.8009 29.3317C88.1701 29.6146 88.9085 29.8974 89.5546 29.8974C90.4777 29.8974 90.9392 29.426 90.9392 28.766C90.9392 28.106 90.57 27.7288 89.6469 27.446C88.3547 26.9746 87.7085 26.2203 87.7085 25.3717C87.7085 24.146 88.6316 23.2031 90.2008 23.2031C90.9392 23.2031 91.5853 23.3917 91.9546 23.6746L91.5853 24.6174C91.3084 24.4288 90.7546 24.146 90.1085 24.146C89.37 24.146 88.9085 24.6174 88.9085 25.1831C88.9085 25.7488 89.37 26.0317 90.2931 26.4088C91.4931 26.8803 92.1392 27.5403 92.1392 28.6717C92.1392 29.9917 91.1238 30.8403 89.4623 30.8403C88.6316 30.8403 87.9855 30.6517 87.4316 30.3688L87.8009 29.3317Z" fill="#2C3952"/>
<path d="M98.2313 22.0714L96.5699 23.0143L96.293 21.9771L98.416 20.8457H99.5236V30.7457H98.2313V22.0714Z" fill="#2C3952"/>
<path d="M108.569 25.6539C108.569 29.0482 107.369 30.8396 105.246 30.8396C103.4 30.8396 102.108 29.0482 102.016 25.7482C102.016 22.4482 103.4 20.5625 105.339 20.5625C107.462 20.6568 108.569 22.5425 108.569 25.6539ZM103.308 25.8425C103.308 28.3882 104.046 29.8968 105.246 29.8968C106.539 29.8968 107.185 28.2939 107.185 25.7482C107.185 23.2968 106.539 21.6939 105.246 21.6939C104.139 21.6939 103.308 23.1082 103.308 25.8425Z" fill="#2C3952"/>
<path d="M38 12.8072C38 11.0648 39.2289 10 40.7414 10C41.7813 10 42.443 10.484 42.9156 11.1616L42.1594 11.6456C41.8758 11.2584 41.4031 10.968 40.7414 10.968C39.7016 10.968 38.9453 11.7424 38.9453 12.904C38.9453 14.0656 39.7016 14.84 40.7414 14.84C41.3086 14.84 41.7813 14.5496 41.9703 14.356V13.4848H40.4578V12.6136H43.0102V14.6464C42.5375 15.2272 41.7812 15.6144 40.8359 15.6144C39.2289 15.6144 38 14.4528 38 12.8072Z" fill="#2C3953"/>
<path d="M44.1445 15.5175V10.0967H47.7367V10.9679H44.9953V12.3231H47.6422V13.1943H44.9953V14.7431H47.7367V15.6143L44.1445 15.5175Z" fill="#2C3953"/>
<path d="M50.3834 15.5175V10.9679H48.7764V10.0967H52.9357V10.9679H51.3287V15.5175H50.3834Z" fill="#2C3953"/>
<path d="M56.1504 15.5175V10.0967H57.0957V15.5175H56.1504Z" fill="#2C3953"/>
<path d="M59.648 15.5175V10.9679H58.041V10.0967H62.2004V10.9679H60.5934V15.5175H59.648Z" fill="#2C3953"/>
<path d="M65.2246 12.8072C65.2246 11.1616 66.359 10 67.966 10C69.5731 10 70.7074 11.1616 70.7074 12.8072C70.7074 14.4528 69.5731 15.6144 67.966 15.6144C66.359 15.6144 65.2246 14.356 65.2246 12.8072ZM69.6676 12.8072C69.6676 11.6456 69.0059 10.8712 67.8715 10.8712C66.8316 10.8712 66.0754 11.7424 66.0754 12.8072C66.0754 13.9688 66.7371 14.7432 67.8715 14.7432C69.0059 14.7432 69.6676 13.872 69.6676 12.8072Z" fill="#2C3953"/>
<path d="M75.4348 15.5175L72.6934 11.6455V15.5175H71.748V10.0967H72.6934L75.4348 13.8719V10.0967H76.3801V15.5175H75.4348Z" fill="#2C3953"/>
</g>
</g>
<defs>
<clipPath id="clip0">
<rect width="119.664" height="40" fill="white"/>
</clipPath>
<clipPath id="clip1">
<rect width="119" height="40" rx="10" fill="white"/>
</clipPath>
</defs>
</svg>
