<svg width="120" height="40" viewBox="0 0 120 40" fill="none" xmlns="http://www.w3.org/2000/svg">
<g clip-path="url(#clip0)">
<path d="M110.135 0.00013H9.53468C9.16798 0.00013 8.80568 0.00013 8.43995 0.00213C8.1338 0.00413 7.83009 0.00994 7.521 0.01483C6.84951 0.0227318 6.17961 0.0818063 5.5171 0.19154C4.85552 0.303663 4.21467 0.515046 3.61622 0.81854C3.0185 1.1246 2.47235 1.5223 1.99757 1.9972C1.5203 2.47077 1.12246 3.01815 0.81935 3.61829C0.5154 4.21724 0.304641 4.85907 0.19435 5.52161C0.0830109 6.18332 0.0230984 6.85265 0.01515 7.52361C0.00587 7.83021 0.00489 8.13783 0 8.44447V31.5587C0.00489 31.8692 0.00587 32.17 0.01515 32.4806C0.0231008 33.1516 0.0830134 33.8209 0.19435 34.4825C0.304336 35.1455 0.515108 35.7877 0.81935 36.3868C1.12233 36.985 1.52022 37.5302 1.99757 38.0011C2.47054 38.4781 3.01705 38.8761 3.61622 39.1798C4.21467 39.4841 4.85545 39.6968 5.5171 39.8106C6.17972 39.9195 6.84956 39.9786 7.521 39.9874C7.83009 39.9942 8.1338 39.9981 8.43995 39.9981C8.80567 40.0001 9.168 40.0001 9.53468 40.0001H110.135C110.494 40.0001 110.859 40.0001 111.219 39.9981C111.523 39.9981 111.836 39.9942 112.141 39.9874C112.811 39.9791 113.479 39.92 114.141 39.8106C114.804 39.696 115.448 39.4834 116.049 39.1798C116.647 38.8759 117.193 38.478 117.666 38.0011C118.142 37.5284 118.541 36.9836 118.848 36.3868C119.15 35.7872 119.358 35.1451 119.467 34.4825C119.578 33.8208 119.64 33.1516 119.652 32.4806C119.656 32.17 119.656 31.8692 119.656 31.5587C119.664 31.1954 119.664 30.8341 119.664 30.4649V9.53626C119.664 9.17005 119.664 8.80677 119.656 8.44447C119.656 8.13783 119.656 7.83021 119.652 7.52357C119.64 6.85255 119.578 6.18337 119.467 5.52157C119.358 4.85941 119.149 4.21763 118.848 3.61825C118.23 2.41533 117.252 1.43616 116.049 0.81845C115.448 0.515697 114.804 0.30437 114.141 0.19145C113.48 0.0812328 112.811 0.0221378 112.141 0.01469C111.836 0.00981 111.523 0.00395 111.219 0.002C110.859 0 110.494 0 110.135 0V0.00013Z" fill="#2C3953"/>
<path d="M8.44487 39.125C8.14019 39.125 7.84287 39.1211 7.54058 39.1143C6.91436 39.1061 6.2896 39.0516 5.67144 38.9512C5.09503 38.8519 4.53664 38.6673 4.0147 38.4033C3.49754 38.1415 3.02585 37.7983 2.6177 37.3867C2.20364 36.98 1.85891 36.5082 1.59719 35.9902C1.33258 35.4688 1.14945 34.9099 1.05419 34.333C0.951311 33.7131 0.895651 33.0863 0.887687 32.458C0.881347 32.2471 0.873047 31.5449 0.873047 31.5449V8.44434C0.873047 8.44434 0.881887 7.75293 0.887737 7.5498C0.895363 6.92248 0.950699 6.29665 1.05327 5.67773C1.14871 5.09925 1.33197 4.53875 1.59673 4.01563C1.85749 3.49794 2.2003 3.02586 2.61187 2.61768C3.02297 2.20562 3.49617 1.8606 4.01421 1.59521C4.53495 1.33209 5.09228 1.14873 5.66753 1.05127C6.28772 0.949836 6.91465 0.894996 7.54304 0.88721L8.44536 0.875H111.214L112.127 0.8877C112.75 0.895099 113.371 0.94945 113.985 1.05029C114.566 1.14898 115.13 1.33362 115.656 1.59814C116.694 2.13299 117.539 2.97916 118.071 4.01807C118.332 4.53758 118.512 5.09351 118.607 5.66699C118.71 6.29099 118.768 6.92174 118.78 7.5542C118.783 7.8374 118.783 8.1416 118.783 8.44434C118.791 8.81934 118.791 9.17627 118.791 9.53613V30.4648C118.791 30.8281 118.791 31.1826 118.783 31.54C118.783 31.8652 118.783 32.1631 118.779 32.4697C118.768 33.0909 118.711 33.7104 118.608 34.3232C118.515 34.9043 118.333 35.4675 118.068 35.9932C117.805 36.5056 117.462 36.9733 117.053 37.3789C116.644 37.7927 116.172 38.1379 115.653 38.4014C115.128 38.6674 114.566 38.8527 113.985 38.9512C113.367 39.0522 112.742 39.1067 112.116 39.1143C111.823 39.1211 111.517 39.125 111.219 39.125L110.135 39.127L8.44487 39.125Z" fill="white"/>
<path d="M72.261 19.744L68.985 29H67.62L65.293 22.344L62.94 29H61.575L58.312 19.744H60.015L62.329 26.647L64.734 19.744H65.93L68.283 26.699L70.649 19.744H72.261ZM78.4298 25.802H73.9058C73.9405 26.504 74.1138 27.024 74.4258 27.362C74.7465 27.6913 75.2188 27.856 75.8428 27.856C76.5621 27.856 77.2295 27.622 77.8448 27.154L78.3128 28.272C78.0008 28.5233 77.6151 28.727 77.1558 28.883C76.7051 29.0303 76.2458 29.104 75.7778 29.104C74.7031 29.104 73.8581 28.8007 73.2428 28.194C72.6275 27.5873 72.3198 26.7553 72.3198 25.698C72.3198 25.0307 72.4541 24.437 72.7228 23.917C72.9915 23.397 73.3685 22.994 73.8538 22.708C74.3391 22.4133 74.8895 22.266 75.5048 22.266C76.4061 22.266 77.1168 22.5607 77.6368 23.15C78.1655 23.7307 78.4298 24.5323 78.4298 25.555V25.802ZM75.5438 23.436C75.1105 23.436 74.7551 23.566 74.4778 23.826C74.2091 24.0773 74.0358 24.4457 73.9578 24.931H77.0128C76.9608 24.437 76.8091 24.0643 76.5578 23.813C76.3151 23.5617 75.9771 23.436 75.5438 23.436ZM83.5499 22.266C84.1219 22.266 84.6245 22.409 85.0579 22.695C85.4999 22.9723 85.8422 23.3667 86.0849 23.878C86.3275 24.3893 86.4489 24.983 86.4489 25.659C86.4489 26.335 86.3232 26.9373 86.0719 27.466C85.8292 27.986 85.4869 28.389 85.0449 28.675C84.6115 28.961 84.1132 29.104 83.5499 29.104C83.0645 29.104 82.6312 29 82.2499 28.792C81.8772 28.584 81.5955 28.2937 81.4049 27.921V29H79.8059V19.432H81.4179V23.423C81.6172 23.059 81.9032 22.7773 82.2759 22.578C82.6485 22.37 83.0732 22.266 83.5499 22.266ZM83.1209 27.83C83.6582 27.83 84.0742 27.6393 84.3689 27.258C84.6635 26.8767 84.8109 26.3437 84.8109 25.659C84.8109 24.983 84.6635 24.463 84.3689 24.099C84.0742 23.7263 83.6539 23.54 83.1079 23.54C82.5619 23.54 82.1415 23.7263 81.8469 24.099C81.5522 24.4717 81.4049 25.0003 81.4049 25.685C81.4049 26.3783 81.5522 26.9113 81.8469 27.284C82.1415 27.648 82.5662 27.83 83.1209 27.83Z" fill="#2C3952"/>
<path d="M46.0715 25.7321H46.1965V25.6071V10.6786C46.1965 10.2225 45.8768 9.875 45.4287 9.875H34.5006H23.5726C23.1244 9.875 22.8047 10.2225 22.8047 10.6786V25.6071V25.7321H22.9297H46.0715ZM21.0013 27.5179H20.8763V27.6429V27.9792C20.8464 28.6314 21.3459 29.125 21.9655 29.125H47.0358C47.6619 29.125 48.125 28.6262 48.125 27.9821V27.6429V27.5179H48H21.0013Z" fill="#2C3952" stroke="#2C3952" stroke-width="0.25"/>
<path d="M63.11 10.016L60.891 15H60.156L57.937 10.016H58.875L60.534 13.866L62.193 10.016H63.11ZM63.7239 10.016H64.6269V15H63.7239V10.016ZM65.8463 10.016H69.1783V10.73H66.7283V12.109H69.0313V12.823H66.7283V14.286H69.1783V15H65.8463V10.016ZM77.2894 10.016L75.5254 15H74.7904L73.5374 11.416L72.2704 15H71.5354L69.7784 10.016H70.6954L71.9414 13.733L73.2364 10.016H73.8804L75.1474 13.761L76.4214 10.016H77.2894ZM82.4031 15.063C81.9225 15.063 81.5025 14.9603 81.1431 14.755C80.7885 14.545 80.5131 14.2487 80.3171 13.866C80.1258 13.4787 80.0301 13.0237 80.0301 12.501C80.0301 11.983 80.1258 11.5327 80.3171 11.15C80.5085 10.7627 80.7815 10.4663 81.1361 10.261C81.4955 10.0557 81.9178 9.953 82.4031 9.953C82.8885 9.953 83.3085 10.0557 83.6631 10.261C84.0225 10.4663 84.2955 10.7627 84.4821 11.15C84.6735 11.5327 84.7691 11.983 84.7691 12.501C84.7691 13.0237 84.6735 13.4787 84.4821 13.866C84.2908 14.2487 84.0178 14.545 83.6631 14.755C83.3085 14.9603 82.8885 15.063 82.4031 15.063ZM82.4031 14.342C82.8651 14.342 83.2245 14.1833 83.4811 13.866C83.7378 13.5487 83.8661 13.0937 83.8661 12.501C83.8661 11.913 83.7378 11.4627 83.4811 11.15C83.2245 10.8327 82.8651 10.674 82.4031 10.674C81.9411 10.674 81.5818 10.8303 81.3251 11.143C81.0685 11.4557 80.9401 11.9083 80.9401 12.501C80.9401 13.0937 81.0685 13.5487 81.3251 13.866C81.5818 14.1833 81.9411 14.342 82.4031 14.342ZM90.0341 10.016V15H89.3621L86.6741 11.507V15H85.8341V10.016H86.5061L89.1871 13.502V10.016H90.0341Z" fill="#2C3952"/>
</g>
<defs>
<clipPath id="clip0">
<rect width="119.664" height="40" fill="white"/>
</clipPath>
</defs>
</svg>
