<svg width="121" height="39" viewBox="0 0 121 39" fill="none" xmlns="http://www.w3.org/2000/svg">
<g clip-path="url(#clip0)">
<path d="M111.364 0.00012584H9.64112C9.27033 0.00012584 8.90399 0.00012584 8.53417 0.00206184C8.22461 0.00399784 7.9175 0.00962192 7.60496 0.0143554C6.92598 0.0220044 6.2486 0.0791885 5.57869 0.185411C4.90973 0.293945 4.26172 0.498564 3.65659 0.792347C3.0522 1.08861 2.49995 1.47358 2.01987 1.93329C1.53728 2.3917 1.13499 2.92157 0.828497 3.5025C0.521154 4.08229 0.308041 4.70358 0.19652 5.34492C0.0839377 5.98545 0.0233562 6.63337 0.0153191 7.28286C0.00593553 7.57964 0.00494459 7.87742 0 8.17425V30.5489C0.00494459 30.8494 0.00593553 31.1406 0.0153191 31.4412C0.0233587 32.0907 0.0839401 32.7386 0.19652 33.3791C0.307734 34.0208 0.520859 34.6425 0.828497 35.2225C1.13486 35.8015 1.53719 36.3292 2.01987 36.7851C2.49813 37.2468 3.05073 37.6321 3.65659 37.9261C4.26172 38.2206 4.90966 38.4265 5.57869 38.5367C6.24871 38.6421 6.92603 38.6993 7.60496 38.7078C7.9175 38.7144 8.22461 38.7182 8.53417 38.7182C8.90398 38.7201 9.27035 38.7201 9.64112 38.7201H111.364C111.728 38.7201 112.097 38.7201 112.46 38.7182C112.769 38.7182 113.085 38.7144 113.393 38.7078C114.07 38.6997 114.746 38.6425 115.415 38.5367C116.086 38.4257 116.736 38.2199 117.344 37.9261C117.95 37.6319 118.502 37.2467 118.98 36.7851C119.461 36.3274 119.864 35.8001 120.174 35.2225C120.48 34.642 120.691 34.0204 120.8 33.3791C120.913 32.7385 120.976 32.0908 120.988 31.4412C120.992 31.1406 120.992 30.8494 120.992 30.5489C121 30.1972 121 29.8474 121 29.4901V9.2311C121 8.87661 121 8.52495 120.992 8.17425C120.992 7.87742 120.992 7.57964 120.988 7.28282C120.976 6.63327 120.913 5.9855 120.8 5.34488C120.691 4.70391 120.48 4.08267 120.174 3.50247C119.55 2.33804 118.561 1.3902 117.344 0.79226C116.736 0.499195 116.086 0.294631 115.415 0.185324C114.746 0.0786333 114.07 0.0214294 113.393 0.0142199C113.085 0.00949608 112.769 0.0038236 112.46 0.001936C112.097 0 111.728 0 111.364 0V0.00012584Z" fill="#2C3953"/>
<path d="M8.53916 37.8727C8.23108 37.8727 7.93044 37.8689 7.62478 37.8623C6.99157 37.8544 6.35984 37.8017 5.73477 37.7044C5.15193 37.6083 4.58731 37.4296 4.05954 37.1741C3.5366 36.9207 3.05965 36.5884 2.64694 36.19C2.22826 35.7963 1.87969 35.3397 1.61504 34.8382C1.34747 34.3335 1.1623 33.7925 1.06597 33.234C0.961951 32.634 0.905669 32.0272 0.897616 31.419C0.891205 31.2149 0.882812 30.5351 0.882812 30.5351V8.1738C0.882812 8.1738 0.891751 7.50452 0.897667 7.30789C0.905378 6.70064 0.961332 6.09484 1.06504 5.49572C1.16155 4.93575 1.34686 4.39319 1.61457 3.88681C1.87825 3.38569 2.22488 2.92871 2.64104 2.53359C3.05674 2.13472 3.53522 1.80074 4.05904 1.54384C4.5856 1.28915 5.14915 1.11165 5.73082 1.01731C6.35794 0.919121 6.99186 0.866036 7.62727 0.858499L8.53966 0.84668H112.456L113.379 0.858973C114.008 0.866136 114.637 0.918747 115.258 1.01636C115.846 1.11189 116.415 1.29062 116.948 1.54668C117.997 2.06441 118.851 2.88351 119.389 3.88917C119.653 4.39206 119.835 4.93019 119.931 5.48533C120.036 6.08936 120.094 6.69992 120.106 7.31215C120.109 7.58628 120.109 7.88075 120.109 8.1738C120.117 8.5368 120.117 8.88231 120.117 9.23065V29.4896C120.117 29.8413 120.117 30.1844 120.109 30.5304C120.109 30.8452 120.109 31.1336 120.105 31.4304C120.094 32.0317 120.036 32.6313 119.933 33.2245C119.838 33.787 119.654 34.3322 119.387 34.8411C119.12 35.3371 118.773 35.7898 118.36 36.1825C117.947 36.583 117.469 36.9172 116.945 37.1722C116.413 37.4297 115.845 37.6091 115.258 37.7044C114.633 37.8022 114.001 37.8549 113.368 37.8623C113.072 37.8689 112.762 37.8727 112.46 37.8727L111.364 37.8746L8.53916 37.8727Z" fill="white"/>
<g clip-path="url(#clip1)">
<path d="M39.5834 16.251H30.4173C30.1643 16.251 29.959 16.4563 29.959 16.7093V24.0422C29.959 25.1494 30.7473 26.0743 31.7922 26.2879V28.6252C31.7922 29.3832 32.4091 30.0001 33.1671 30.0001C33.9252 30.0001 34.542 29.3832 34.542 28.6252V26.3337H35.4586V28.6252C35.4586 29.3832 36.0755 30.0001 36.8335 30.0001C37.5916 30.0001 38.2084 29.3832 38.2084 28.6252V26.2879C39.2534 26.0752 40.0417 25.1494 40.0417 24.0422V16.7093C40.0417 16.4554 39.8364 16.251 39.5834 16.251Z" fill="#2C3953"/>
<path d="M37.399 10.4424L38.1717 8.63944C38.2716 8.40661 38.1635 8.13807 37.9307 8.03813C37.7006 7.93729 37.4284 8.04548 37.3294 8.27922L36.5567 10.0831C36.0663 9.92361 35.5438 9.83471 35.0012 9.83471C34.4585 9.83471 33.9361 9.92361 33.4457 10.0831L32.6712 8.27922C32.5722 8.04548 32.3 7.93639 32.0699 8.03813C31.8371 8.13803 31.7298 8.40751 31.8298 8.63944L32.6025 10.4424C31.0287 11.2967 29.959 12.964 29.959 14.876C29.959 15.129 30.1643 15.3343 30.4173 15.3343H39.5834C39.8363 15.3343 40.0417 15.129 40.0417 14.876C40.0416 12.964 38.9719 11.2967 37.399 10.4424ZM33.1671 13.5011C32.9141 13.5011 32.7088 13.2958 32.7088 13.0428C32.7088 12.7898 32.9141 12.5845 33.1671 12.5845C33.4201 12.5845 33.6254 12.7898 33.6254 13.0428C33.6254 13.2958 33.4201 13.5011 33.1671 13.5011ZM36.8335 13.5011C36.5805 13.5011 36.3752 13.2958 36.3752 13.0428C36.3752 12.7898 36.5805 12.5845 36.8335 12.5845C37.0865 12.5845 37.2918 12.7898 37.2918 13.0428C37.2918 13.2958 37.0865 13.5011 36.8335 13.5011Z" fill="#2C3953"/>
<path d="M42.3329 16.251C41.5749 16.251 40.958 16.8678 40.958 17.6259V22.2089C40.958 22.967 41.5749 23.5838 42.3329 23.5838C43.091 23.5838 43.7078 22.967 43.7078 22.2089V17.6259C43.7078 16.8679 43.091 16.251 42.3329 16.251Z" fill="#2C3953"/>
<path d="M27.6669 16.251C26.9089 16.251 26.292 16.8678 26.292 17.6259V22.2089C26.292 22.967 26.9089 23.5838 27.6669 23.5838C28.4249 23.5838 29.0418 22.967 29.0418 22.2089V17.6259C29.0418 16.8679 28.4249 16.251 27.6669 16.251Z" fill="#2C3953"/>
</g>
<path d="M65.4 30H63.416L62.632 27.744H57.864L57.08 30H55.08L59.144 18.8H61.352L65.4 30ZM60.248 20.96L58.472 26.016H62.024L60.248 20.96ZM67.0844 18.8H71.2124C72.2684 18.8 73.1484 19.152 73.8524 19.856C74.567 20.56 74.9244 21.4347 74.9244 22.48C74.9244 23.5147 74.567 24.3893 73.8524 25.104C73.1484 25.808 72.2684 26.16 71.2124 26.16H68.9244V30H67.0844V18.8ZM68.9244 24.432H71.2124C71.7564 24.432 72.2044 24.2507 72.5564 23.888C72.9084 23.5147 73.0844 23.0453 73.0844 22.48C73.0844 21.9147 72.9084 21.4507 72.5564 21.088C72.2044 20.7147 71.7564 20.528 71.2124 20.528H68.9244V24.432ZM80.7619 24.256L85.4499 30H83.2579L78.8419 24.672V30H77.0019V18.8H78.8419V23.824L83.0979 18.8H85.2899L80.7619 24.256Z" fill="#2C3953"/>
<path d="M55 10.8072C55 9.0648 56.2289 8 57.7414 8C58.7813 8 59.443 8.484 59.9156 9.1616L59.1594 9.6456C58.8758 9.2584 58.4031 8.968 57.7414 8.968C56.7016 8.968 55.9453 9.7424 55.9453 10.904C55.9453 12.0656 56.7016 12.84 57.7414 12.84C58.3086 12.84 58.7813 12.5496 58.9703 12.356V11.4848H57.4578V10.6136H60.0102V12.6464C59.5375 13.2272 58.7812 13.6144 57.8359 13.6144C56.2289 13.6144 55 12.4528 55 10.8072Z" fill="#2C3953"/>
<path d="M61.1445 13.5175V8.09668H64.7367V8.96788H61.9953V10.3231H64.6422V11.1943H61.9953V12.7431H64.7367V13.6143L61.1445 13.5175Z" fill="#2C3953"/>
<path d="M67.3834 13.5175V8.96788H65.7764V8.09668H69.9357V8.96788H68.3287V13.5175H67.3834Z" fill="#2C3953"/>
<path d="M73.1504 13.5175V8.09668H74.0957V13.5175H73.1504Z" fill="#2C3953"/>
<path d="M76.648 13.5175V8.96788H75.041V8.09668H79.2004V8.96788H77.5934V13.5175H76.648Z" fill="#2C3953"/>
<path d="M82.2246 10.8072C82.2246 9.1616 83.359 8 84.966 8C86.5731 8 87.7074 9.1616 87.7074 10.8072C87.7074 12.4528 86.5731 13.6144 84.966 13.6144C83.359 13.6144 82.2246 12.356 82.2246 10.8072ZM86.6676 10.8072C86.6676 9.6456 86.0059 8.8712 84.8715 8.8712C83.8316 8.8712 83.0754 9.7424 83.0754 10.8072C83.0754 11.9688 83.7371 12.7432 84.8715 12.7432C86.0059 12.7432 86.6676 11.872 86.6676 10.8072Z" fill="#2C3953"/>
<path d="M92.4348 13.5175L89.6934 9.64548V13.5175H88.748V8.09668H89.6934L92.4348 11.8719V8.09668H93.3801V13.5175H92.4348Z" fill="#2C3953"/>
</g>
<defs>
<clipPath id="clip0">
<rect width="121" height="38.72" fill="white"/>
</clipPath>
<clipPath id="clip1">
<rect width="22" height="22" fill="white" transform="translate(24 8)"/>
</clipPath>
</defs>
</svg>
