<svg width="150" height="150" viewBox="0 0 150 150" fill="none" xmlns="http://www.w3.org/2000/svg">
<path d="M0 131.897V113.793H36.2069V150H0V131.897ZM31.0345 131.897V118.966H5.17241V144.828H31.0345V131.897ZM10.3448 131.897V124.138H25.8621V139.655H10.3448V131.897ZM46.5517 147.414V144.828H41.3793V134.483H46.5517V118.966H51.7241V113.793H41.3793V108.621H20.6897V103.448H25.8621V98.2759H15.5172V108.621H10.3448V103.448H0V98.2759H10.3448V87.931H5.17241V93.1034H0V82.7586H10.3448V87.931H15.5172V93.1034H20.6897V87.931H25.8621V93.1034H36.2069V87.931H31.0345V82.7586H15.5172V77.5862H31.0345V72.4138H15.5172V67.2414H10.3448V72.4138H0V56.8966H5.17241V62.069H36.2069V56.8966H31.0345V51.7241H20.6897V56.8966H15.5172V51.7241H5.17241V41.3793H15.5172V51.7241H20.6897V46.5517H31.0345V41.3793H36.2069V46.5517H31.0345V51.7241H36.2069V56.8966H41.3793V46.5517H46.5517V41.3793H41.3793V25.8621H51.7241V31.0345H56.8966V36.2069H51.7241V41.3793H56.8966V72.4138H46.5517V67.2414H41.3793V72.4138H36.2069V77.5862H31.0345V82.7586H36.2069V87.931H41.3793V93.1034H51.7241V87.931H46.5517V82.7586H41.3793V77.5862H51.7241V87.931H56.8966V77.5862H62.069V87.931H67.2414V72.4138H72.4138V67.2414H77.5862V72.4138H72.4138V77.5862H77.5862V82.7586H93.1034V77.5862H87.931V72.4138H82.7586V62.069H77.5862V56.8966H82.7586V51.7241H87.931V46.5517H82.7586V41.3793H77.5862V51.7241H72.4138V46.5517H67.2414V51.7241H62.069V46.5517H67.2414V41.3793H62.069V25.8621H56.8966V20.6897H62.069V25.8621H67.2414V5.17241H72.4138V15.5172H82.7586V10.3448H77.5862V0H87.931V5.17241H82.7586V10.3448H93.1034V5.17241H98.2759V0H108.621V15.5172H98.2759V10.3448H93.1034V20.6897H98.2759V36.2069H103.448V31.0345H108.621V56.8966H118.966V51.7241H113.793V41.3793H124.138V56.8966H134.483V51.7241H129.31V41.3793H134.483V51.7241H139.655V46.5517H150V56.8966H144.828V51.7241H139.655V56.8966H134.483V72.4138H139.655V77.5862H134.483V82.7586H124.138V87.931H118.966V93.1034H108.621V87.931H103.448V82.7586H98.2759V93.1034H103.448V98.2759H118.966V103.448H129.31V98.2759H124.138V93.1034H129.31V87.931H134.483V93.1034H139.655V98.2759H144.828V87.931H139.655V82.7586H150V98.2759H144.828V108.621H150V118.966H144.828V134.483H150V139.655H134.483V150H118.966V144.828H129.31V139.655H118.966V129.31H113.793V139.655H108.621V144.828H113.793V150H103.448V134.483H98.2759V144.828H93.1034V139.655H87.931V118.966H93.1034V134.483H98.2759V118.966H103.448V108.621H98.2759V103.448H93.1034V98.2759H98.2759V93.1034H93.1034V87.931H87.931V108.621H93.1034V113.793H82.7586V124.138H77.5862V134.483H82.7586V139.655H77.5862V144.828H87.931V150H77.5862V144.828H72.4138V139.655H67.2414V150H46.5517V147.414ZM62.069 139.655V134.483H67.2414V118.966H56.8966V124.138H62.069V129.31H51.7241V134.483H46.5517V139.655H51.7241V144.828H62.069V139.655ZM134.483 134.483V129.31H139.655V118.966H144.828V113.793H139.655V98.2759H134.483V113.793H139.655V118.966H134.483V124.138H129.31V139.655H134.483V134.483ZM108.621 131.897V129.31H103.448V134.483H108.621V131.897ZM77.5862 121.552V118.966H72.4138V124.138H77.5862V121.552ZM124.138 116.379V108.621H108.621V124.138H124.138V116.379ZM113.793 116.379V113.793H118.966V118.966H113.793V116.379ZM72.4138 111.207V108.621H82.7586V103.448H72.4138V98.2759H67.2414V103.448H72.4138V108.621H62.069V103.448H56.8966V108.621H51.7241V103.448H46.5517V98.2759H41.3793V93.1034H36.2069V98.2759H31.0345V103.448H36.2069V98.2759H41.3793V103.448H46.5517V108.621H51.7241V113.793H72.4138V111.207ZM56.8966 95.6897V93.1034H51.7241V98.2759H56.8966V95.6897ZM82.7586 93.1034V87.931H72.4138V93.1034H77.5862V98.2759H82.7586V93.1034ZM113.793 85.3448V82.7586H108.621V87.931H113.793V85.3448ZM124.138 80.1724V77.5862H129.31V62.069H124.138V67.2414H118.966V72.4138H113.793V67.2414H103.448V62.069H98.2759V56.8966H103.448V41.3793H98.2759V36.2069H93.1034V31.0345H87.931V36.2069H82.7586V20.6897H87.931V25.8621H93.1034V20.6897H87.931V15.5172H82.7586V20.6897H77.5862V36.2069H82.7586V41.3793H87.931V36.2069H93.1034V51.7241H87.931V56.8966H82.7586V62.069H87.931V72.4138H93.1034V67.2414H103.448V72.4138H108.621V77.5862H118.966V82.7586H124.138V80.1724ZM118.966 75V72.4138H124.138V77.5862H118.966V75ZM36.2069 69.8276V67.2414H41.3793V62.069H36.2069V67.2414H31.0345V72.4138H36.2069V69.8276ZM51.7241 59.4828V56.8966H46.5517V62.069H51.7241V59.4828ZM51.7241 33.6207V31.0345H46.5517V36.2069H51.7241V33.6207ZM72.4138 31.0345V25.8621H67.2414V36.2069H72.4138V31.0345ZM103.448 7.75862V5.17241H98.2759V10.3448H103.448V7.75862ZM144.828 147.414V144.828H150V150H144.828V147.414ZM144.828 72.4138V67.2414H139.655V62.069H144.828V67.2414H150V77.5862H144.828V72.4138ZM0 18.1034V0H36.2069V36.2069H0V18.1034ZM31.0345 18.1034V5.17241H5.17241V31.0345H31.0345V18.1034ZM10.3448 18.1034V10.3448H25.8621V25.8621H10.3448V18.1034ZM113.793 18.1034V0H150V36.2069H113.793V18.1034ZM144.828 18.1034V5.17241H118.966V31.0345H144.828V18.1034ZM124.138 18.1034V10.3448H139.655V25.8621H124.138V18.1034ZM41.3793 18.1034V15.5172H46.5517V20.6897H41.3793V18.1034ZM51.7241 12.931V10.3448H46.5517V0H51.7241V5.17241H56.8966V0H62.069V5.17241H56.8966V15.5172H51.7241V12.931Z" fill="#2C3952"/>
</svg>
